<?xml version="1.0" encoding="UTF-8" standalone="no"?>
<!DOCTYPE svg PUBLIC "-//W3C//DTD SVG 1.1//EN" "http://www.w3.org/Graphics/SVG/1.1/DTD/svg11.dtd">
<svg width="100%" height="100%" viewBox="0 0 128 124" version="1.1" xmlns="http://www.w3.org/2000/svg" xmlns:xlink="http://www.w3.org/1999/xlink" xml:space="preserve" xmlns:serif="http://www.serif.com/" style="fill-rule:evenodd;clip-rule:evenodd;stroke-linejoin:round;stroke-miterlimit:2;">
    <g id="g12" transform="matrix(0.133333,0,0,-0.133333,0,123.627)">
        <g id="ink_ext_XXXXXX">
            <g id="g121" serif:id="g12">
                <path id="path14" d="M822.406,779.391C820.359,798.055 803.574,811.527 784.91,809.48C766.262,807.438 752.793,790.652 754.828,771.992C756.871,753.336 773.652,739.875 792.309,741.902C810.973,743.949 824.441,760.738 822.406,779.391" style="fill:rgb(55,146,173);fill-rule:nonzero;"/>
                <path id="path16" d="M879.23,896.68C883.441,905.777 879.488,916.551 870.398,920.77C861.309,924.988 850.52,921.039 846.301,911.953C842.078,902.855 846.035,892.074 855.133,887.848C864.215,883.641 875.012,887.594 879.23,896.68" style="fill:rgb(55,146,173);fill-rule:nonzero;"/>
                <path id="path18" d="M388.672,798.965C386.453,819.258 401.121,837.52 421.406,839.742C441.699,841.957 459.961,827.301 462.18,807.004C464.402,786.711 449.746,768.453 429.453,766.227C409.16,764.004 390.898,778.672 388.672,798.965" style="fill:rgb(138,202,37);fill-rule:nonzero;"/>
                <path id="path20" d="M396.801,854.703C395.863,863.199 388.246,869.316 379.766,868.379C371.285,867.445 365.145,859.824 366.07,851.348C367.008,842.848 374.633,836.719 383.125,837.645C391.617,838.582 397.734,846.215 396.801,854.703" style="fill:rgb(55,146,173);fill-rule:nonzero;"/>
                <path id="path22" d="M756.719,706.777C754.973,722.797 740.559,734.371 724.531,732.621C708.516,730.867 696.941,716.453 698.691,700.422C700.449,684.402 714.855,672.836 730.891,674.598C746.902,676.348 758.477,690.754 756.719,706.777" style="fill:rgb(55,146,173);fill-rule:nonzero;"/>
                <path id="path24" d="M678.535,668.793C684.414,681.461 678.906,696.504 666.238,702.383C653.555,708.262 638.523,702.754 632.645,690.074C626.77,677.41 632.273,662.363 644.941,656.484C657.629,650.605 672.668,656.113 678.535,668.793" style="fill:rgb(55,146,173);fill-rule:nonzero;"/>
                <path id="path26" d="M828.598,732.75C827.789,740.223 833.188,746.949 840.668,747.773C848.148,748.594 854.867,743.188 855.68,735.703C856.5,728.242 851.109,721.52 843.617,720.691C836.148,719.879 829.43,725.277 828.598,732.75" style="fill:rgb(138,202,37);fill-rule:nonzero;"/>
                <path id="path28" d="M717.578,821.711C716.758,829.184 722.156,835.918 729.617,836.738C737.109,837.555 743.828,832.148 744.656,824.664C745.48,817.203 740.066,810.473 732.59,809.652C725.105,808.84 718.391,814.234 717.578,821.711" style="fill:rgb(138,202,37);fill-rule:nonzero;"/>
                <path id="path30" d="M665.313,852.781C664.148,863.465 671.863,873.082 682.539,874.254C693.23,875.418 702.844,867.691 704.004,857.02C705.176,846.328 697.473,836.723 686.777,835.563C676.094,834.391 666.484,842.105 665.313,852.781" style="fill:rgb(138,202,37);fill-rule:nonzero;"/>
                <path id="path32" d="M611.02,872.82C602.535,883.941 604.664,899.824 615.766,908.281C626.871,916.777 642.738,914.652 651.215,903.555C659.691,892.441 657.574,876.563 646.469,868.086C635.387,859.609 619.496,861.738 611.02,872.82" style="fill:rgb(138,202,37);fill-rule:nonzero;"/>
                <path id="path34" d="M533.191,898.184C531.621,912.543 541.98,925.469 556.352,927.039C570.719,928.609 583.633,918.242 585.211,903.875C586.781,889.516 576.422,876.59 562.043,875.035C547.68,873.457 534.762,883.828 533.191,898.184" style="fill:rgb(138,202,37);fill-rule:nonzero;"/>
                <path id="path36" d="M492.34,841.664L493.961,842.234C510.48,848.551 519.215,866.813 513.406,882.965C507.789,898.539 490.691,906.664 474.469,901.43L472.914,900.883C456.391,894.578 447.641,876.309 453.469,860.156C459.059,844.52 476.137,836.422 492.34,841.664" style="fill:rgb(138,202,37);fill-rule:nonzero;"/>
                <path id="path38" d="M330.176,734.809C328.301,751.895 340.645,767.273 357.727,769.137C374.824,771.012 390.195,758.672 392.063,741.578C393.926,724.492 381.594,709.121 364.504,707.258C347.41,705.383 332.043,717.719 330.176,734.809" style="fill:rgb(138,202,37);fill-rule:nonzero;"/>
                <path id="path40" d="M265.879,717.227C264.512,729.598 273.461,740.754 285.836,742.113C298.23,743.457 309.371,734.508 310.719,722.133C312.074,709.742 303.145,698.609 290.754,697.25C278.363,695.898 267.227,704.836 265.879,717.227" style="fill:rgb(138,202,37);fill-rule:nonzero;"/>
                <path id="path42" d="M351.836,883.227C350.43,896.055 338.906,905.301 326.074,903.902C313.254,902.5 304.004,890.965 305.398,878.152C306.809,865.348 318.34,856.078 331.16,857.48C343.977,858.902 353.242,870.418 351.836,883.227" style="fill:rgb(55,146,173);fill-rule:nonzero;"/>
                <path id="path44" d="M287.23,873.559C285.66,887.977 272.68,898.387 258.266,896.813C243.844,895.23 233.434,882.262 235.004,867.848C236.582,853.426 249.551,842.992 263.98,844.578C278.398,846.168 288.805,859.141 287.23,873.559" style="fill:rgb(55,146,173);fill-rule:nonzero;"/>
                <path id="path46" d="M856.07,851.469C854.43,866.488 840.914,877.348 825.883,875.703C810.859,874.063 800.012,860.531 801.645,845.504C803.285,830.488 816.809,819.645 831.848,821.285C846.863,822.926 857.719,836.445 856.07,851.469" style="fill:rgb(55,146,173);fill-rule:nonzero;"/>
                <path id="path48" d="M611.98,702.715C610.82,713.398 601.211,721.102 590.535,719.93C579.844,718.77 572.141,709.164 573.301,698.484C574.473,687.793 584.07,680.078 594.766,681.25C605.449,682.422 613.152,692.027 611.98,702.715" style="fill:rgb(55,146,173);fill-rule:nonzero;"/>
                <path id="path50" d="M554.844,731.785C553.906,740.344 546.223,746.488 537.688,745.563C529.141,744.629 522.961,736.941 523.895,728.395C524.836,719.859 532.52,713.691 541.063,714.617C549.617,715.566 555.781,723.242 554.844,731.785" style="fill:rgb(55,146,173);fill-rule:nonzero;"/>
                <path id="path52" d="M505.488,770.523C504.785,776.949 499.016,781.563 492.605,780.859C486.199,780.16 481.563,774.402 482.273,767.988C482.98,761.582 488.738,756.953 495.145,757.652C501.563,758.348 506.184,764.133 505.488,770.523" style="fill:rgb(55,146,173);fill-rule:nonzero;"/>
                <path id="path54" d="M173.816,754.426L200.602,733.07L200.602,120.645C199.27,55.438 126.391,0 70.906,0C54.211,0 37.488,0.723 24.121,10.469C2.758,26.211 -0.609,52.441 0.078,80.184C2.066,146.895 72.234,198.578 129.746,200.859C143.723,201.465 157.738,200.531 174.059,191.406C177.242,189.629 173.816,754.426 173.816,754.426" style="fill:rgb(55,146,173);fill-rule:nonzero;"/>
                <path id="path56" d="M231.016,826.469C229.203,842.996 214.348,854.871 197.855,853.082C181.352,851.277 169.41,836.43 171.223,819.91C173.031,803.426 187.875,791.508 204.387,793.301C220.902,795.133 232.828,809.961 231.016,826.469" style="fill:rgb(55,146,173);fill-rule:nonzero;"/>
                <path id="path58" d="M871.773,716.07C870.609,726.754 878.324,736.367 889,737.539C899.691,738.707 909.301,730.977 910.465,720.309C911.637,709.613 903.93,700.008 893.238,698.848C882.555,697.676 872.945,705.391 871.773,716.07" style="fill:rgb(138,202,37);fill-rule:nonzero;"/>
            </g>
        </g>
    </g>
</svg>
